<svg width="216" height="28" viewBox="0 0 216 28" fill="none" xmlns="http://www.w3.org/2000/svg">
<path d="M37.6475 2.63138L30.6641 24.6772H34.6034L38.9457 11.6084C39.0621 11.2469 39.5724 11.194 39.7604 11.5291L47.2363 24.8271C47.4601 25.224 47.8809 25.4621 48.3375 25.4621H50.352C50.8981 25.4621 51.3816 25.1182 51.5517 24.6067L58.7948 2.62256H54.8554L51.5248 13.6455C51.2921 14.4215 50.1908 14.4832 49.8685 13.7425L45.007 2.63138H37.6475Z" fill="#0A0A0A"/>
<path d="M86.5324 8.36326C86.5324 8.36326 84.5717 2.44615 78.2955 2.01405C77.0868 1.92587 75.0276 1.70541 73.4608 2.01405C72.2253 2.26096 61.5084 4.70364 57.9719 13.6543C57.4706 14.9241 57.569 17.7548 57.9719 19.1216C58.2226 19.977 58.8404 21.0705 59.8073 22.164C62.0546 24.686 64.9733 25.3297 66.0297 25.4708C67.3817 25.6472 69.611 25.8412 71.4911 25.4708C73.9533 24.9858 83.8017 22.2521 86.6219 13.3015C86.9979 12.1199 87.2486 10.1269 86.5324 8.36326ZM77.7136 13.6984C76.3706 20.6648 72.091 24.2186 69.1186 23.4867C66.9698 22.9576 65.3583 18.6366 66.6117 13.522C67.3906 10.3386 70.372 5.67366 72.1626 4.88001C75.9588 3.19571 79.0565 6.73186 77.7136 13.6984Z" fill="#0A0A0A"/>
<path d="M88.1436 2.54321H97.6339L98.1263 18.2134C98.1442 18.6455 98.7172 18.8042 98.9589 18.4339L109.183 2.54321H113.481L98.4844 24.2804C98.0099 24.9683 97.2131 25.3827 96.3625 25.3827H92.9603C92.3873 25.3827 91.8322 25.1975 91.3667 24.8624L90.9906 24.5891C90.3729 24.1393 89.9789 23.4515 89.9163 22.7019L88.1436 2.54321Z" fill="#0A0A0A"/>
<path d="M101.842 24.7654H106.587L116.409 8.86596C116.641 8.49559 117.214 8.63669 117.241 9.06879L118.226 24.7654H127L124.753 3.33686C124.708 2.88713 124.323 2.54321 123.858 2.54321H117.626C117.331 2.54321 117.053 2.68431 116.883 2.93122L101.842 24.7654Z" fill="#0A0A0A"/>
<path d="M16.2589 19.7478C15.6321 20.6208 14.4056 20.8325 13.5103 20.2152C12.6239 19.5979 12.409 18.3898 13.0357 17.5079L21.9799 4.97707C19.67 2.53439 16.3573 1 12.6955 1C5.68523 1 0 6.59965 0 13.5044C0 15.0035 0.268594 16.4409 0.761015 17.7725L8.80987 6.50265C9.43659 5.62963 10.6632 5.41799 11.5585 6.03527C12.4448 6.65256 12.6597 7.86067 12.033 8.7425L2.92767 21.485C5.25548 24.2451 8.7651 26 12.6955 26C19.7058 26 25.391 20.4004 25.391 13.4956C25.391 11.7055 25.0061 10.0035 24.3256 8.46914L16.2589 19.7478Z" fill="#0A0A0A"/>
<path fill-rule="evenodd" clip-rule="evenodd" d="M161.326 2.6C161.326 2.26863 161.611 2 161.962 2H185.373C185.724 2 186.009 2.26863 186.009 2.6V6.87935C186.009 7.21072 186.294 7.47935 186.645 7.47935H211.363C211.838 7.47935 212.145 7.95252 211.93 8.3517L205.37 20.5017C205.262 20.7028 205.043 20.8293 204.804 20.8293H186.645C186.294 20.8293 186.009 21.098 186.009 21.4293V25.4C186.009 25.7314 185.724 26 185.373 26H161.962C161.611 26 161.326 25.7314 161.326 25.4V21.4293C161.326 21.098 161.042 20.8293 160.691 20.8293H135.637C135.163 20.8293 134.855 20.3574 135.069 19.9583L141.588 7.80834C141.696 7.60654 141.916 7.47935 142.155 7.47935H160.691C161.042 7.47935 161.326 7.21072 161.326 6.87935V2.6ZM164.827 4.7C164.476 4.7 164.192 4.96863 164.192 5.3V9.57935C164.192 9.91072 163.907 10.1793 163.556 10.1793H147.641C147.404 10.1793 147.186 10.3039 147.077 10.5024L143.354 17.2524C143.134 17.6518 143.441 18.1293 143.918 18.1293H163.556C163.907 18.1293 164.192 18.398 164.192 18.7293V22.7C164.192 23.0314 164.476 23.3 164.827 23.3H182.508C182.859 23.3 183.144 23.0314 183.144 22.7V18.7293C183.144 18.398 183.429 18.1293 183.78 18.1293H199.875C200.111 18.1293 200.328 18.0058 200.438 17.8085L204.198 11.0585C204.421 10.659 204.114 10.1793 203.635 10.1793H183.78C183.429 10.1793 183.144 9.91072 183.144 9.57935V5.3C183.144 4.96863 182.859 4.7 182.508 4.7H164.827Z" fill="#0A0A0A"/>
</svg>
